<mxfile host="app.diagrams.net" agent="Mozilla/5.0 (Windows NT 10.0; Win64; x64) AppleWebKit/537.36 (KHTML, like Gecko) Chrome/138.0.0.0 Safari/537.36" version="28.0.4">
  <diagram name="Page-1" id="7ZSHc32FTAZHLAhfMezp">
    <mxGraphModel dx="1426" dy="903" grid="1" gridSize="10" guides="1" tooltips="1" connect="1" arrows="1" fold="1" page="1" pageScale="1" pageWidth="850" pageHeight="1100" math="0" shadow="0">
      <root>
        <mxCell id="0" />
        <mxCell id="1" parent="0" />
        <mxCell id="yE6AP36Ys_rfPLglw9nZ-1" value="Musician-Song" style="rounded=0;whiteSpace=wrap;html=1;" vertex="1" parent="1">
          <mxGeometry x="10" y="740" width="120" height="60" as="geometry" />
        </mxCell>
        <mxCell id="yE6AP36Ys_rfPLglw9nZ-2" value="Musician-Instrument" style="rounded=0;whiteSpace=wrap;html=1;" vertex="1" parent="1">
          <mxGeometry x="10" y="580" width="120" height="60" as="geometry" />
        </mxCell>
        <mxCell id="yE6AP36Ys_rfPLglw9nZ-3" value="Song" style="rounded=0;whiteSpace=wrap;html=1;" vertex="1" parent="1">
          <mxGeometry x="10" y="440" width="120" height="60" as="geometry" />
        </mxCell>
        <mxCell id="yE6AP36Ys_rfPLglw9nZ-4" value="Instrument" style="rounded=0;whiteSpace=wrap;html=1;" vertex="1" parent="1">
          <mxGeometry x="10" y="300" width="120" height="60" as="geometry" />
        </mxCell>
        <mxCell id="yE6AP36Ys_rfPLglw9nZ-5" value="Album" style="rounded=0;whiteSpace=wrap;html=1;" vertex="1" parent="1">
          <mxGeometry x="10" y="160" width="120" height="60" as="geometry" />
        </mxCell>
        <mxCell id="yE6AP36Ys_rfPLglw9nZ-6" value="Musician" style="rounded=0;whiteSpace=wrap;html=1;" vertex="1" parent="1">
          <mxGeometry x="10" y="10" width="120" height="60" as="geometry" />
        </mxCell>
        <mxCell id="yE6AP36Ys_rfPLglw9nZ-7" value="&lt;u&gt;ID&lt;/u&gt; , Name, Phone, street, City" style="text;html=1;align=center;verticalAlign=middle;whiteSpace=wrap;rounded=0;" vertex="1" parent="1">
          <mxGeometry x="160" y="25" width="170" height="30" as="geometry" />
        </mxCell>
        <mxCell id="yE6AP36Ys_rfPLglw9nZ-8" value="&lt;u&gt;Id_album&lt;/u&gt;, cr-date, title, ID" style="text;html=1;align=center;verticalAlign=middle;whiteSpace=wrap;rounded=0;" vertex="1" parent="1">
          <mxGeometry x="170" y="175" width="150" height="30" as="geometry" />
        </mxCell>
        <mxCell id="yE6AP36Ys_rfPLglw9nZ-9" value="" style="endArrow=classic;html=1;rounded=0;exitX=0.92;exitY=0.067;exitDx=0;exitDy=0;exitPerimeter=0;entryX=0.071;entryY=0.9;entryDx=0;entryDy=0;entryPerimeter=0;" edge="1" parent="1" source="yE6AP36Ys_rfPLglw9nZ-8" target="yE6AP36Ys_rfPLglw9nZ-7">
          <mxGeometry width="50" height="50" relative="1" as="geometry">
            <mxPoint x="400" y="490" as="sourcePoint" />
            <mxPoint x="450" y="440" as="targetPoint" />
          </mxGeometry>
        </mxCell>
        <mxCell id="yE6AP36Ys_rfPLglw9nZ-10" value="&lt;u&gt;Ins_Name&lt;/u&gt;,&amp;nbsp; Key" style="text;html=1;align=center;verticalAlign=middle;whiteSpace=wrap;rounded=0;" vertex="1" parent="1">
          <mxGeometry x="170" y="315" width="90" height="30" as="geometry" />
        </mxCell>
        <mxCell id="yE6AP36Ys_rfPLglw9nZ-11" value="&lt;u&gt;Song_ID&lt;/u&gt;, title, author,Id_album" style="text;html=1;align=center;verticalAlign=middle;whiteSpace=wrap;rounded=0;" vertex="1" parent="1">
          <mxGeometry x="170" y="455" width="170" height="30" as="geometry" />
        </mxCell>
        <mxCell id="yE6AP36Ys_rfPLglw9nZ-12" value="&lt;u&gt;ID , Ins_Name&lt;/u&gt;" style="text;html=1;align=center;verticalAlign=middle;whiteSpace=wrap;rounded=0;" vertex="1" parent="1">
          <mxGeometry x="160" y="595" width="80" height="30" as="geometry" />
        </mxCell>
        <mxCell id="yE6AP36Ys_rfPLglw9nZ-13" value="&lt;u&gt;ID , Song_ID&lt;/u&gt;" style="text;html=1;align=center;verticalAlign=middle;whiteSpace=wrap;rounded=0;" vertex="1" parent="1">
          <mxGeometry x="150" y="755" width="90" height="30" as="geometry" />
        </mxCell>
        <mxCell id="yE6AP36Ys_rfPLglw9nZ-14" value="" style="endArrow=classic;html=1;rounded=0;exitX=0.824;exitY=0.067;exitDx=0;exitDy=0;exitPerimeter=0;entryX=0.25;entryY=1;entryDx=0;entryDy=0;" edge="1" parent="1" source="yE6AP36Ys_rfPLglw9nZ-11" target="yE6AP36Ys_rfPLglw9nZ-8">
          <mxGeometry width="50" height="50" relative="1" as="geometry">
            <mxPoint x="400" y="490" as="sourcePoint" />
            <mxPoint x="310" y="240" as="targetPoint" />
            <Array as="points">
              <mxPoint x="380" y="340" />
            </Array>
          </mxGeometry>
        </mxCell>
        <mxCell id="yE6AP36Ys_rfPLglw9nZ-15" value="" style="endArrow=classic;html=1;rounded=0;exitX=0.75;exitY=0;exitDx=0;exitDy=0;entryX=0.356;entryY=1.133;entryDx=0;entryDy=0;entryPerimeter=0;" edge="1" parent="1" source="yE6AP36Ys_rfPLglw9nZ-12" target="yE6AP36Ys_rfPLglw9nZ-10">
          <mxGeometry width="50" height="50" relative="1" as="geometry">
            <mxPoint x="400" y="490" as="sourcePoint" />
            <mxPoint x="450" y="440" as="targetPoint" />
            <Array as="points">
              <mxPoint x="450" y="520" />
            </Array>
          </mxGeometry>
        </mxCell>
        <mxCell id="yE6AP36Ys_rfPLglw9nZ-16" value="" style="endArrow=classic;html=1;rounded=0;entryX=0.135;entryY=0.933;entryDx=0;entryDy=0;entryPerimeter=0;" edge="1" parent="1" target="yE6AP36Ys_rfPLglw9nZ-7">
          <mxGeometry width="50" height="50" relative="1" as="geometry">
            <mxPoint x="170" y="600" as="sourcePoint" />
            <mxPoint x="520" y="70" as="targetPoint" />
            <Array as="points">
              <mxPoint x="520" y="598" />
              <mxPoint x="610" y="320" />
            </Array>
          </mxGeometry>
        </mxCell>
        <mxCell id="yE6AP36Ys_rfPLglw9nZ-17" value="" style="endArrow=classic;html=1;rounded=0;exitX=0.25;exitY=0;exitDx=0;exitDy=0;" edge="1" parent="1" source="yE6AP36Ys_rfPLglw9nZ-13">
          <mxGeometry width="50" height="50" relative="1" as="geometry">
            <mxPoint x="400" y="490" as="sourcePoint" />
            <mxPoint x="190" y="60" as="targetPoint" />
            <Array as="points">
              <mxPoint x="660" y="760" />
              <mxPoint x="730" y="420" />
            </Array>
          </mxGeometry>
        </mxCell>
        <mxCell id="yE6AP36Ys_rfPLglw9nZ-18" value="" style="endArrow=classic;html=1;rounded=0;exitX=0.678;exitY=0.133;exitDx=0;exitDy=0;exitPerimeter=0;entryX=0.147;entryY=1.1;entryDx=0;entryDy=0;entryPerimeter=0;" edge="1" parent="1" source="yE6AP36Ys_rfPLglw9nZ-13" target="yE6AP36Ys_rfPLglw9nZ-11">
          <mxGeometry width="50" height="50" relative="1" as="geometry">
            <mxPoint x="400" y="490" as="sourcePoint" />
            <mxPoint x="450" y="440" as="targetPoint" />
            <Array as="points">
              <mxPoint x="560" y="690" />
            </Array>
          </mxGeometry>
        </mxCell>
        <mxCell id="yE6AP36Ys_rfPLglw9nZ-19" value="" style="endArrow=none;dashed=1;html=1;dashPattern=1 3;strokeWidth=2;rounded=0;" edge="1" parent="1">
          <mxGeometry width="50" height="50" relative="1" as="geometry">
            <mxPoint x="167.5" y="620" as="sourcePoint" />
            <mxPoint x="232.5" y="620" as="targetPoint" />
            <Array as="points">
              <mxPoint x="202.5" y="620" />
            </Array>
          </mxGeometry>
        </mxCell>
        <mxCell id="yE6AP36Ys_rfPLglw9nZ-21" value="" style="endArrow=none;dashed=1;html=1;dashPattern=1 3;strokeWidth=2;rounded=0;" edge="1" parent="1">
          <mxGeometry width="50" height="50" relative="1" as="geometry">
            <mxPoint x="162.5" y="780" as="sourcePoint" />
            <mxPoint x="227.5" y="780" as="targetPoint" />
            <Array as="points">
              <mxPoint x="197.5" y="780" />
            </Array>
          </mxGeometry>
        </mxCell>
        <mxCell id="yE6AP36Ys_rfPLglw9nZ-23" value="" style="endArrow=none;dashed=1;html=1;dashPattern=1 3;strokeWidth=2;rounded=0;" edge="1" parent="1">
          <mxGeometry width="50" height="50" relative="1" as="geometry">
            <mxPoint x="295" y="480" as="sourcePoint" />
            <mxPoint x="325" y="480" as="targetPoint" />
            <Array as="points">
              <mxPoint x="330" y="480" />
            </Array>
          </mxGeometry>
        </mxCell>
        <mxCell id="yE6AP36Ys_rfPLglw9nZ-24" value="" style="endArrow=none;dashed=1;html=1;dashPattern=1 3;strokeWidth=2;rounded=0;" edge="1" parent="1">
          <mxGeometry width="50" height="50" relative="1" as="geometry">
            <mxPoint x="295" y="200" as="sourcePoint" />
            <mxPoint x="325" y="200" as="targetPoint" />
            <Array as="points">
              <mxPoint x="330" y="200" />
            </Array>
          </mxGeometry>
        </mxCell>
      </root>
    </mxGraphModel>
  </diagram>
</mxfile>
